<svg xmlns="http://www.w3.org/2000/svg" xmlns:xlink="http://www.w3.org/1999/xlink" version="1.1" data-diagram-type="CLASS" style="width:542px;height:416px;background:#FFFFFF;" width="542px" height="416px" viewBox="0 0 542 416" zoomAndPan="magnify" preserveAspectRatio="none" contentStyleType="text/css"><?plantuml 1.2026.8?><defs/><g font-family="sans-serif" lengthAdjust="spacing"><!--class TypeRegistry--><g class="entity" data-qualified-name="TypeRegistry" id="ent0001" data-source-line="5"><rect x="135" y="99" width="225.849" height="139.063" fill="#F1F1F1" style="stroke:#181818;stroke-width:0.5;" rx="2.5" ry="2.5"/><ellipse cx="194.069" cy="119.311" rx="11" ry="11" fill="#ADD1B2" style="stroke:#181818;stroke-width:1;"/><path d="M196.542,125.454 Q195.961,125.752 195.322,125.902 Q194.683,126.051 193.977,126.051 Q191.47,126.051 190.15,124.399 Q188.831,122.748 188.831,119.626 Q188.831,116.497 190.15,114.845 Q191.47,113.193 193.977,113.193 Q194.683,113.193 195.33,113.343 Q195.978,113.492 196.542,113.791 L196.542,116.514 Q195.911,115.933 195.318,115.663 Q194.724,115.393 194.093,115.393 Q192.749,115.393 192.064,116.46 Q191.379,117.526 191.379,119.626 Q191.379,121.718 192.064,122.785 Q192.749,123.852 194.093,123.852 Q194.724,123.852 195.318,123.582 Q195.911,123.312 196.542,122.731 Z " fill="#000"/><text x="228.588" y="115.602" fill="#000" font-size="12" textLength="59.584" font-style="italic">«Registry»</text><text x="214.569" y="131.668" fill="#000" font-size="14" textLength="87.623">TypeRegistry</text><rect x="354.261" y="96" width="9.588" height="16.133" fill="#FFF" style="stroke:#181818;stroke-width:1;stroke-dasharray:2,2;"/><text x="355.261" y="108.602" fill="#000" font-size="12" font-style="italic">T</text><line x1="136" y1="139.621" x2="359.849" y2="139.621" style="stroke:#181818;stroke-width:0.5;"/><text x="141" y="157.156" fill="#000" font-size="14" textLength="196.109">-strategies : Map&lt;string, T></text><line x1="136" y1="164.109" x2="359.849" y2="164.109" style="stroke:#181818;stroke-width:0.5;"/><text x="141" y="181.645" fill="#000" font-size="14" textLength="203.772">+register(type, strategy) : this</text><text x="141" y="198.133" fill="#000" font-size="14" textLength="213.849">+resolve(type) : Resolution&lt;T></text><text x="141" y="214.621" fill="#000" font-size="14" textLength="140.52">+has(type) : boolean</text><text x="141" y="231.109" fill="#000" font-size="14" textLength="118.494">+types() : string[]</text></g><!--class Strategy--><g class="entity" data-qualified-name="Strategy" id="ent0002" data-source-line="13"><rect x="204.5" y="282.5" width="87.316" height="40.621" fill="#F1F1F1" style="stroke:#181818;stroke-width:0.5;" rx="2.5" ry="2.5"/><ellipse cx="219.5" cy="302.811" rx="11" ry="11" fill="#B4A7E5" style="stroke:#181818;stroke-width:1;"/><path d="M215.928,299.076 L215.928,296.917 L223.307,296.917 L223.307,299.076 L220.842,299.076 L220.842,307.152 L223.307,307.152 L223.307,309.311 L215.928,309.311 L215.928,307.152 L218.393,307.152 L218.393,299.076 Z " fill="#000"/><text x="251.077" y="299.102" fill="#000" font-size="12" textLength="20.162" font-style="italic">«T»</text><text x="233.5" y="315.168" fill="#000" font-size="14" textLength="55.316" font-style="italic">Strategy</text></g><g class="entity" data-qualified-name="GMN3" id="ent0004" data-source-line="15"><path d="M309.5,275 L309.5,299 L291.828,303 L309.5,307 L309.5,330.932 A0,0 0 0 0 309.5,330.932 L526.3,330.932 A0,0 0 0 0 526.3,330.932 L526.3,285 L516.3,275 L309.5,275 A0,0 0 0 0 309.5,275" style="stroke:#181818;stroke-width:0.5;" fill="#FEFFDD"/><path d="M516.3,275 L516.3,285 L526.3,285 L516.3,275" style="stroke:#181818;stroke-width:0.5;" fill="#FEFFDD"/><text x="315.5" y="292.568" fill="#000" font-size="13" textLength="187.338">any behavior keyed by @type:</text><text x="315.5" y="307.879" fill="#000" font-size="13" textLength="195.8">a gadget loader, a data source,</text><text x="315.5" y="323.189" fill="#000" font-size="13" textLength="118.384">a channel renderer</text></g><!--class Client--><g class="entity" data-qualified-name="Client" id="ent0006" data-source-line="17"><rect x="212" y="12" width="71.505" height="32" fill="#F1F1F1" style="stroke:#181818;stroke-width:0.5;" rx="2.5" ry="2.5"/><ellipse cx="227" cy="28" rx="11" ry="11" fill="#ADD1B2" style="stroke:#181818;stroke-width:1;"/><path d="M229.473,34.143 Q228.892,34.442 228.253,34.591 Q227.614,34.741 226.908,34.741 Q224.401,34.741 223.082,33.089 Q221.762,31.437 221.762,28.316 Q221.762,25.187 223.082,23.535 Q224.401,21.883 226.908,21.883 Q227.614,21.883 228.261,22.032 Q228.909,22.182 229.473,22.48 L229.473,25.203 Q228.842,24.622 228.249,24.352 Q227.655,24.083 227.024,24.083 Q225.68,24.083 224.995,25.149 Q224.31,26.216 224.31,28.316 Q224.31,30.408 224.995,31.474 Q225.68,32.541 227.024,32.541 Q227.655,32.541 228.249,32.271 Q228.842,32.001 229.473,31.42 Z " fill="#000"/><text x="241" y="33.291" fill="#000" font-size="14" textLength="39.505">Client</text></g><g class="entity" data-qualified-name="GMN7" id="ent0008" data-source-line="19"><path d="M6,15.5 L6,40.811 A0,0 0 0 0 6,40.811 L193.651,40.811 A0,0 0 0 0 193.651,40.811 L193.651,33.5 L211.876,28 L193.651,25.5 L193.651,25.5 L183.651,15.5 L6,15.5 A0,0 0 0 0 6,15.5" style="stroke:#181818;stroke-width:0.5;" fill="#FEFFDD"/><path d="M183.651,15.5 L183.651,25.5 L193.651,25.5 L183.651,15.5" style="stroke:#181818;stroke-width:0.5;" fill="#FEFFDD"/><text x="12" y="33.068" fill="#000" font-size="13" textLength="166.651">for example a gadget host</text></g><!--class NumberCardStrategy--><g class="entity" data-qualified-name="NumberCardStrategy" id="ent0010" data-source-line="21"><rect x="77" y="368" width="173.716" height="32" fill="#F1F1F1" style="stroke:#181818;stroke-width:0.5;" rx="2.5" ry="2.5"/><ellipse cx="92" cy="384" rx="11" ry="11" fill="#ADD1B2" style="stroke:#181818;stroke-width:1;"/><path d="M94.473,390.143 Q93.892,390.442 93.253,390.591 Q92.614,390.741 91.908,390.741 Q89.401,390.741 88.082,389.089 Q86.762,387.437 86.762,384.316 Q86.762,381.187 88.082,379.535 Q89.401,377.883 91.908,377.883 Q92.614,377.883 93.261,378.032 Q93.909,378.182 94.473,378.48 L94.473,381.203 Q93.842,380.622 93.249,380.352 Q92.655,380.083 92.024,380.083 Q90.68,380.083 89.995,381.149 Q89.31,382.216 89.31,384.316 Q89.31,386.408 89.995,387.474 Q90.68,388.541 92.024,388.541 Q92.655,388.541 93.249,388.271 Q93.842,388.001 94.473,387.42 Z " fill="#000"/><text x="106" y="389.291" fill="#000" font-size="14" textLength="141.716">NumberCardStrategy</text></g><!--class TableStrategy--><g class="entity" data-qualified-name="TableStrategy" id="ent0011" data-source-line="22"><rect x="269.5" y="368" width="124.559" height="32" fill="#F1F1F1" style="stroke:#181818;stroke-width:0.5;" rx="2.5" ry="2.5"/><ellipse cx="284.5" cy="384" rx="11" ry="11" fill="#ADD1B2" style="stroke:#181818;stroke-width:1;"/><path d="M286.973,390.143 Q286.392,390.442 285.753,390.591 Q285.114,390.741 284.408,390.741 Q281.901,390.741 280.582,389.089 Q279.262,387.437 279.262,384.316 Q279.262,381.187 280.582,379.535 Q281.901,377.883 284.408,377.883 Q285.114,377.883 285.761,378.032 Q286.409,378.182 286.973,378.48 L286.973,381.203 Q286.342,380.622 285.749,380.352 Q285.155,380.083 284.524,380.083 Q283.18,380.083 282.495,381.149 Q281.81,382.216 281.81,384.316 Q281.81,386.408 282.495,387.474 Q283.18,388.541 284.524,388.541 Q285.155,388.541 285.749,388.271 Q286.342,388.001 286.973,387.42 Z " fill="#000"/><text x="298.5" y="389.291" fill="#000" font-size="14" textLength="92.559">TableStrategy</text></g><g class="link" data-entity-1="ent0006" data-entity-2="ent0001" id="lnk12" data-link-type="dependency"><polygon points="248,98.909,252,89.909,248,93.909,244,89.909,248,98.909" fill="#181818" style="stroke:#181818;stroke-width:1;stroke-linejoin:miter;stroke-miterlimit:10;"/><path d="M248,44.086 C248,57.547 248,73.267 248,93.909" style="stroke:#181818;stroke-width:1;" fill="none"/><text x="250" y="76.568" fill="#000" font-size="13" textLength="101.309">resolve("@type")</text></g><g class="link" data-entity-1="ent0001" data-entity-2="ent0002" id="lnk13" data-link-type="aggregation"><polygon points="248,238.079,244,244.079,248,250.079,252,244.079,248,238.079" fill="none" style="stroke:#181818;stroke-width:1;stroke-linejoin:miter;stroke-miterlimit:10;"/><polygon points="248,282.442,252,273.442,248,277.442,244,273.442,248,282.442" fill="#181818" style="stroke:#181818;stroke-width:1;stroke-linejoin:miter;stroke-miterlimit:10;"/><path d="M248,250.079 C248,266.37 248,265.474 248,277.442" style="stroke:#181818;stroke-width:1;" fill="none"/><text x="241" y="279.011" fill="#000" font-size="13">*</text></g><g class="link" data-entity-1="ent0002" data-entity-2="ent0010" id="lnk14" data-link-type="extension"><polygon points="227.236,323.528,210.013,331.489,218.234,340.231,227.236,323.528" fill="none" style="stroke:#181818;stroke-width:1;stroke-linejoin:miter;stroke-miterlimit:10;"/><path d="M214.124,335.86 C199.549,349.567 193.456,355.298 180.05,367.905" style="stroke:#181818;stroke-width:1;stroke-dasharray:7,7;" fill="none"/></g><g class="link" data-entity-1="ent0002" data-entity-2="ent0011" id="lnk15" data-link-type="extension"><polygon points="268.764,323.528,277.766,340.231,285.987,331.489,268.764,323.528" fill="none" style="stroke:#181818;stroke-width:1;stroke-linejoin:miter;stroke-miterlimit:10;"/><path d="M281.876,335.86 C296.451,349.567 302.544,355.298 315.95,367.905" style="stroke:#181818;stroke-width:1;stroke-dasharray:7,7;" fill="none"/></g><?plantuml-src RL6nKkCm5Epr5Gytbnn9eFPuFCUaek0ASCTTyMozs1faoICzCwS3_Xt9SHmoGoVjhdPNxrqD3jiUGMEm8uFlYT6W-05xZTw3LDWwxE5W7KZR-9i1cSaPV-FP8LCRjevQ5IzXrykTw9Gae7xW03trDJal_8io0oQJ9bdUCJjLZqptZJLFwZ_1hH0J0raL1dgSxOggp00zVCMWA4x7ieGt0R25kOSY3payu514G9bs0rKP-MiurYEtucYqESd3EggvKtxMUAjVQP8auZ7THrRM5BDBXtvXQsirePdmXFbLGe-npt_5Xn3AnC03DWHFSrniNasLFuInJE1Ksp7OmrcG0ve0DNNugkAmNoYGX3h0hnIH_p48BSgM6BH5IMu3218PmTlHDRH9WgP3OqZ7xvYe8BVCTQyL6Px6UJoUYsWwJ3rcF9ysJV-m7pJ1ajbPpoUttsFQwnwTF7MVYGfhJGicPiVjjhpSORwCEvl-bgt51M_JY-ndjen6d8VuljjzbtyfkEZn2G00?></g></svg>