<svg xmlns="http://www.w3.org/2000/svg" xmlns:xlink="http://www.w3.org/1999/xlink" version="1.1" data-diagram-type="SEQUENCE" style="width:1800px;height:956px;background:#FFFFFF;" width="1800px" height="956px" viewBox="0 0 1800 956" zoomAndPan="magnify" preserveAspectRatio="none" contentStyleType="text/css"><?plantuml 1.2026.8?><defs/><g font-family="sans-serif" lengthAdjust="spacing"><g class="title" data-source-line="7"><text x="749.408" y="28.535" fill="#000" font-size="14" textLength="299.626" font-weight="700">Assistant chat: "move the bar chart right"</text></g><g><title>User</title><rect x="24.683" y="123.977" width="8" height="745.453" fill="#000" fill-opacity="0"/><line x1="28.183" y1="123.977" x2="28.183" y2="869.43" style="stroke:#181818;stroke-width:0.5;stroke-dasharray:5,5;"/></g><g><title>AgentPanel</title><rect x="243.657" y="123.977" width="8" height="745.453" fill="#000" fill-opacity="0"/><line x1="247.157" y1="123.977" x2="247.157" y2="869.43" style="stroke:#181818;stroke-width:0.5;stroke-dasharray:5,5;"/></g><g><title>streamChat</title><rect x="590.452" y="123.977" width="8" height="745.453" fill="#000" fill-opacity="0"/><line x1="593.952" y1="123.977" x2="593.952" y2="869.43" style="stroke:#181818;stroke-width:0.5;stroke-dasharray:5,5;"/></g><g><title>AgentController</title><rect x="822.776" y="123.977" width="8" height="745.453" fill="#000" fill-opacity="0"/><line x1="826.276" y1="123.977" x2="826.276" y2="869.43" style="stroke:#181818;stroke-width:0.5;stroke-dasharray:5,5;"/></g><g><title>AgentService</title><rect x="1036.743" y="123.977" width="8" height="745.453" fill="#000" fill-opacity="0"/><line x1="1040.243" y1="123.977" x2="1040.243" y2="869.43" style="stroke:#181818;stroke-width:0.5;stroke-dasharray:5,5;"/></g><g><title>resolveUiPart</title><rect x="1201.078" y="123.977" width="8" height="745.453" fill="#000" fill-opacity="0"/><line x1="1204.578" y1="123.977" x2="1204.578" y2="869.43" style="stroke:#181818;stroke-width:0.5;stroke-dasharray:5,5;"/></g><g><title>AgentActions</title><rect x="1425.035" y="123.977" width="8" height="745.453" fill="#000" fill-opacity="0"/><line x1="1428.535" y1="123.977" x2="1428.535" y2="869.43" style="stroke:#181818;stroke-width:0.5;stroke-dasharray:5,5;"/></g><g><title>Board</title><rect x="1759.48" y="123.977" width="8" height="745.453" fill="#000" fill-opacity="0"/><line x1="1762.98" y1="123.977" x2="1762.98" y2="869.43" style="stroke:#181818;stroke-width:0.5;stroke-dasharray:5,5;"/></g><text x="10" y="121.023" fill="#000" font-size="14" textLength="30.365">User</text><ellipse cx="28.183" cy="55.988" rx="8" ry="8" fill="#E2E2F0" style="stroke:#181818;stroke-width:0.5;"/><path d="M28.183,63.988 L28.183,90.988 M15.183,71.988 L41.183,71.988 M28.183,90.988 L15.183,105.988 M28.183,90.988 L41.183,105.988" style="stroke:#181818;stroke-width:0.5;" fill="none"/><rect x="161.934" y="76" width="170.447" height="46.977" fill="#E2E2F0" style="stroke:#181818;stroke-width:0.5;" rx="2.5" ry="2.5"/><text x="209.098" y="96.535" fill="#000" font-size="14" textLength="76.118">AgentPanel</text><text x="168.934" y="113.023" fill="#000" font-size="14" textLength="156.447">(React or Angular host)</text><rect x="527.213" y="76" width="133.479" height="46.977" fill="#E2E2F0" style="stroke:#181818;stroke-width:0.5;" rx="2.5" ry="2.5"/><text x="554.929" y="96.535" fill="#000" font-size="14" textLength="78.046">streamChat</text><text x="534.213" y="113.023" fill="#000" font-size="14" textLength="119.479">(@armature/core)</text><rect x="744.744" y="76" width="163.064" height="46.977" fill="#E2E2F0" style="stroke:#181818;stroke-width:0.5;" rx="2.5" ry="2.5"/><text x="772.139" y="96.535" fill="#000" font-size="14" textLength="108.274">AgentController</text><text x="751.744" y="113.023" fill="#000" font-size="14" textLength="149.064">POST /api/agent/chat</text><rect x="980.722" y="76" width="119.041" height="46.977" fill="#E2E2F0" style="stroke:#181818;stroke-width:0.5;" rx="2.5" ry="2.5"/><text x="996.52" y="96.535" fill="#000" font-size="14" textLength="87.445">AgentService</text><text x="987.722" y="113.023" fill="#000" font-size="14" textLength="105.041">(model + tools)</text><rect x="1109.763" y="76" width="189.629" height="46.977" fill="#E2E2F0" style="stroke:#181818;stroke-width:0.5;" rx="2.5" ry="2.5"/><text x="1160.308" y="96.535" fill="#000" font-size="14" textLength="88.539">resolveUiPart</text><text x="1116.763" y="113.023" fill="#000" font-size="14" textLength="175.629">(@armature/core registry)</text><rect x="1346.5" y="76" width="164.069" height="46.977" fill="#E2E2F0" style="stroke:#181818;stroke-width:0.5;" rx="2.5" ry="2.5"/><text x="1383.209" y="96.535" fill="#000" font-size="14" textLength="90.651">AgentActions</text><text x="1353.5" y="113.023" fill="#000" font-size="14" textLength="150.069">(host implementation)</text><rect x="1736.518" y="76" width="52.924" height="46.977" fill="#E2E2F0" style="stroke:#181818;stroke-width:0.5;" rx="2.5" ry="2.5"/><text x="1743.518" y="96.535" fill="#000" font-size="14" textLength="38.924">Board</text><text x="1743.597" y="113.023" fill="#000" font-size="14" textLength="38.767">(host)</text><text x="10" y="882.965" fill="#000" font-size="14" textLength="30.365">User</text><ellipse cx="28.183" cy="894.418" rx="8" ry="8" fill="#E2E2F0" style="stroke:#181818;stroke-width:0.5;"/><path d="M28.183,902.418 L28.183,929.418 M15.183,910.418 L41.183,910.418 M28.183,929.418 L15.183,944.418 M28.183,929.418 L41.183,944.418" style="stroke:#181818;stroke-width:0.5;" fill="none"/><rect x="161.934" y="869.43" width="170.447" height="46.977" fill="#E2E2F0" style="stroke:#181818;stroke-width:0.5;" rx="2.5" ry="2.5"/><text x="209.098" y="889.965" fill="#000" font-size="14" textLength="76.118">AgentPanel</text><text x="168.934" y="906.453" fill="#000" font-size="14" textLength="156.447">(React or Angular host)</text><rect x="527.213" y="869.43" width="133.479" height="46.977" fill="#E2E2F0" style="stroke:#181818;stroke-width:0.5;" rx="2.5" ry="2.5"/><text x="554.929" y="889.965" fill="#000" font-size="14" textLength="78.046">streamChat</text><text x="534.213" y="906.453" fill="#000" font-size="14" textLength="119.479">(@armature/core)</text><rect x="744.744" y="869.43" width="163.064" height="46.977" fill="#E2E2F0" style="stroke:#181818;stroke-width:0.5;" rx="2.5" ry="2.5"/><text x="772.139" y="889.965" fill="#000" font-size="14" textLength="108.274">AgentController</text><text x="751.744" y="906.453" fill="#000" font-size="14" textLength="149.064">POST /api/agent/chat</text><rect x="980.722" y="869.43" width="119.041" height="46.977" fill="#E2E2F0" style="stroke:#181818;stroke-width:0.5;" rx="2.5" ry="2.5"/><text x="996.52" y="889.965" fill="#000" font-size="14" textLength="87.445">AgentService</text><text x="987.722" y="906.453" fill="#000" font-size="14" textLength="105.041">(model + tools)</text><rect x="1109.763" y="869.43" width="189.629" height="46.977" fill="#E2E2F0" style="stroke:#181818;stroke-width:0.5;" rx="2.5" ry="2.5"/><text x="1160.308" y="889.965" fill="#000" font-size="14" textLength="88.539">resolveUiPart</text><text x="1116.763" y="906.453" fill="#000" font-size="14" textLength="175.629">(@armature/core registry)</text><rect x="1346.5" y="869.43" width="164.069" height="46.977" fill="#E2E2F0" style="stroke:#181818;stroke-width:0.5;" rx="2.5" ry="2.5"/><text x="1383.209" y="889.965" fill="#000" font-size="14" textLength="90.651">AgentActions</text><text x="1353.5" y="906.453" fill="#000" font-size="14" textLength="150.069">(host implementation)</text><rect x="1736.518" y="869.43" width="52.924" height="46.977" fill="#E2E2F0" style="stroke:#181818;stroke-width:0.5;" rx="2.5" ry="2.5"/><text x="1743.518" y="889.965" fill="#000" font-size="14" textLength="38.924">Board</text><text x="1743.597" y="906.453" fill="#000" font-size="14" textLength="38.767">(host)</text><polygon points="235.157,149.287,245.157,153.287,235.157,157.287,239.157,153.287" fill="#181818" style="stroke:#181818;stroke-width:1;stroke-linejoin:miter;stroke-miterlimit:10;"/><line x1="28.183" y1="153.287" x2="241.157" y2="153.287" style="stroke:#181818;stroke-width:1;"/><text x="35.183" y="148.545" fill="#000" font-size="13" textLength="194.975">types a message, presses Send</text><line x1="247.157" y1="182.598" x2="289.157" y2="182.598" style="stroke:#181818;stroke-width:1;"/><line x1="289.157" y1="182.598" x2="289.157" y2="195.598" style="stroke:#181818;stroke-width:1;"/><line x1="248.157" y1="195.598" x2="289.157" y2="195.598" style="stroke:#181818;stroke-width:1;"/><polygon points="258.157,191.598,248.157,195.598,258.157,199.598,254.157,195.598" fill="#181818" style="stroke:#181818;stroke-width:1;stroke-linejoin:miter;stroke-miterlimit:10;"/><text x="254.157" y="177.855" fill="#000" font-size="13" textLength="332.795">buildAgentRequest(message, selected board, library)</text><polygon points="581.952,220.908,591.952,224.908,581.952,228.908,585.952,224.908" fill="#181818" style="stroke:#181818;stroke-width:1;stroke-linejoin:miter;stroke-miterlimit:10;"/><line x1="247.157" y1="224.908" x2="587.952" y2="224.908" style="stroke:#181818;stroke-width:1;"/><text x="254.157" y="220.166" fill="#000" font-size="13" textLength="297.8">streamChat(request, { headers: Authorization })</text><polygon points="814.276,250.219,824.276,254.219,814.276,258.219,818.276,254.219" fill="#181818" style="stroke:#181818;stroke-width:1;stroke-linejoin:miter;stroke-miterlimit:10;"/><line x1="593.952" y1="254.219" x2="820.276" y2="254.219" style="stroke:#181818;stroke-width:1;"/><text x="600.952" y="249.477" fill="#000" font-size="13" textLength="208.324">POST, Accept: text/event-stream</text><polygon points="1028.243,279.529,1038.243,283.529,1028.243,287.529,1032.243,283.529" fill="#181818" style="stroke:#181818;stroke-width:1;stroke-linejoin:miter;stroke-miterlimit:10;"/><line x1="826.276" y1="283.529" x2="1034.243" y2="283.529" style="stroke:#181818;stroke-width:1;"/><text x="833.276" y="278.787" fill="#000" font-size="13" textLength="82.767">chat(request)</text><polygon points="604.952,308.84,594.952,312.84,604.952,316.84,600.952,312.84" fill="#181818" style="stroke:#181818;stroke-width:1;stroke-linejoin:miter;stroke-miterlimit:10;"/><line x1="598.952" y1="312.84" x2="1039.243" y2="312.84" style="stroke:#181818;stroke-width:1;stroke-dasharray:2,2;"/><text x="610.952" y="308.098" fill="#000" font-size="13" textLength="126.375">data: RUN_STARTED</text><polygon points="258.157,338.15,248.157,342.15,258.157,346.15,254.157,342.15" fill="#181818" style="stroke:#181818;stroke-width:1;stroke-linejoin:miter;stroke-miterlimit:10;"/><line x1="252.157" y1="342.15" x2="592.952" y2="342.15" style="stroke:#181818;stroke-width:1;stroke-dasharray:2,2;"/><text x="264.157" y="337.408" fill="#000" font-size="13" textLength="218.48">RUN_STARTED (show "Thinking…")</text><polygon points="604.952,367.461,594.952,371.461,604.952,375.461,600.952,371.461" fill="#181818" style="stroke:#181818;stroke-width:1;stroke-linejoin:miter;stroke-miterlimit:10;"/><line x1="598.952" y1="371.461" x2="1039.243" y2="371.461" style="stroke:#181818;stroke-width:1;stroke-dasharray:2,2;"/><text x="610.952" y="366.719" fill="#000" font-size="13" textLength="367.948">data: TEXT_MESSAGE_START, TEXT_MESSAGE_CONTENT …</text><polygon points="258.157,396.771,248.157,400.771,258.157,404.771,254.157,400.771" fill="#181818" style="stroke:#181818;stroke-width:1;stroke-linejoin:miter;stroke-miterlimit:10;"/><line x1="252.157" y1="400.771" x2="592.952" y2="400.771" style="stroke:#181818;stroke-width:1;stroke-dasharray:2,2;"/><text x="264.157" y="396.029" fill="#000" font-size="13" textLength="182.533">text deltas (stream the reply)</text><polygon points="604.952,426.082,594.952,430.082,604.952,434.082,600.952,430.082" fill="#181818" style="stroke:#181818;stroke-width:1;stroke-linejoin:miter;stroke-miterlimit:10;"/><line x1="598.952" y1="430.082" x2="1039.243" y2="430.082" style="stroke:#181818;stroke-width:1;stroke-dasharray:2,2;"/><text x="610.952" y="425.34" fill="#000" font-size="13" textLength="422.291">data: CUSTOM ui-part { componentType: "gadget-move", payload }</text><polygon points="258.157,455.393,248.157,459.393,258.157,463.393,254.157,459.393" fill="#181818" style="stroke:#181818;stroke-width:1;stroke-linejoin:miter;stroke-miterlimit:10;"/><line x1="252.157" y1="459.393" x2="592.952" y2="459.393" style="stroke:#181818;stroke-width:1;stroke-dasharray:2,2;"/><text x="264.157" y="454.65" fill="#000" font-size="13" textLength="44.891">ui-part</text><polygon points="1192.578,484.703,1202.578,488.703,1192.578,492.703,1196.578,488.703" fill="#181818" style="stroke:#181818;stroke-width:1;stroke-linejoin:miter;stroke-miterlimit:10;"/><line x1="247.157" y1="488.703" x2="1198.578" y2="488.703" style="stroke:#181818;stroke-width:1;"/><text x="254.157" y="483.961" fill="#000" font-size="13" textLength="169.578">resolveUiPart(part, actions)</text><line x1="1204.578" y1="533.324" x2="1246.578" y2="533.324" style="stroke:#181818;stroke-width:1;"/><line x1="1246.578" y1="533.324" x2="1246.578" y2="546.324" style="stroke:#181818;stroke-width:1;"/><line x1="1205.578" y1="546.324" x2="1246.578" y2="546.324" style="stroke:#181818;stroke-width:1;"/><polygon points="1215.578,542.324,1205.578,546.324,1215.578,550.324,1211.578,546.324" fill="#181818" style="stroke:#181818;stroke-width:1;stroke-linejoin:miter;stroke-miterlimit:10;"/><text x="1211.578" y="513.271" fill="#000" font-size="13" textLength="200.503">registry.resolve("gadget-move")</text><text x="1211.578" y="528.582" fill="#000" font-size="13" textLength="140.137">→ resolveGadgetMove</text><polygon points="1416.535,571.635,1426.535,575.635,1416.535,579.635,1420.535,575.635" fill="#181818" style="stroke:#181818;stroke-width:1;stroke-linejoin:miter;stroke-miterlimit:10;"/><line x1="1204.578" y1="575.635" x2="1422.535" y2="575.635" style="stroke:#181818;stroke-width:1;"/><text x="1211.578" y="570.893" fill="#000" font-size="13" textLength="117">getSelectedBoard()</text><polygon points="1215.578,600.945,1205.578,604.945,1215.578,608.945,1211.578,604.945" fill="#181818" style="stroke:#181818;stroke-width:1;stroke-linejoin:miter;stroke-miterlimit:10;"/><line x1="1209.578" y1="604.945" x2="1427.535" y2="604.945" style="stroke:#181818;stroke-width:1;stroke-dasharray:2,2;"/><text x="1221.578" y="600.203" fill="#000" font-size="13" textLength="36.848">board</text><line x1="1204.578" y1="634.256" x2="1246.578" y2="634.256" style="stroke:#181818;stroke-width:1;"/><line x1="1246.578" y1="634.256" x2="1246.578" y2="647.256" style="stroke:#181818;stroke-width:1;"/><line x1="1205.578" y1="647.256" x2="1246.578" y2="647.256" style="stroke:#181818;stroke-width:1;"/><polygon points="1215.578,643.256,1205.578,647.256,1215.578,651.256,1211.578,647.256" fill="#181818" style="stroke:#181818;stroke-width:1;stroke-linejoin:miter;stroke-miterlimit:10;"/><text x="1211.578" y="629.514" fill="#000" font-size="13" textLength="200.999">findGadgetByTitle(board, query)</text><polygon points="1416.535,672.566,1426.535,676.566,1416.535,680.566,1420.535,676.566" fill="#181818" style="stroke:#181818;stroke-width:1;stroke-linejoin:miter;stroke-miterlimit:10;"/><line x1="1204.578" y1="676.566" x2="1422.535" y2="676.566" style="stroke:#181818;stroke-width:1;"/><text x="1211.578" y="671.824" fill="#000" font-size="13" textLength="199.958">moveGadget(instanceId, "right")</text><polygon points="1750.98,701.877,1760.98,705.877,1750.98,709.877,1754.98,705.877" fill="#181818" style="stroke:#181818;stroke-width:1;stroke-linejoin:miter;stroke-miterlimit:10;"/><line x1="1428.535" y1="705.877" x2="1756.98" y2="705.877" style="stroke:#181818;stroke-width:1;"/><text x="1435.535" y="701.135" fill="#000" font-size="13" textLength="310.445">gadget move event (same path as drag and drop)</text><polygon points="258.157,731.188,248.157,735.188,258.157,739.188,254.157,735.188" fill="#181818" style="stroke:#181818;stroke-width:1;stroke-linejoin:miter;stroke-miterlimit:10;"/><line x1="252.157" y1="735.188" x2="1203.578" y2="735.188" style="stroke:#181818;stroke-width:1;stroke-dasharray:2,2;"/><text x="264.157" y="730.445" fill="#000" font-size="13" textLength="225.329">resolved part { moved: true, target }</text><line x1="247.157" y1="779.809" x2="289.157" y2="779.809" style="stroke:#181818;stroke-width:1;"/><line x1="289.157" y1="779.809" x2="289.157" y2="792.809" style="stroke:#181818;stroke-width:1;"/><line x1="248.157" y1="792.809" x2="289.157" y2="792.809" style="stroke:#181818;stroke-width:1;"/><polygon points="258.157,788.809,248.157,792.809,258.157,796.809,254.157,792.809" fill="#181818" style="stroke:#181818;stroke-width:1;stroke-linejoin:miter;stroke-miterlimit:10;"/><text x="254.157" y="759.756" fill="#000" font-size="13" textLength="199.208">card from the part card registry</text><text x="254.157" y="775.066" fill="#000" font-size="13" textLength="99.322">"Moved right ✓"</text><polygon points="604.952,818.119,594.952,822.119,604.952,826.119,600.952,822.119" fill="#181818" style="stroke:#181818;stroke-width:1;stroke-linejoin:miter;stroke-miterlimit:10;"/><line x1="598.952" y1="822.119" x2="1039.243" y2="822.119" style="stroke:#181818;stroke-width:1;stroke-dasharray:2,2;"/><text x="610.952" y="817.377" fill="#000" font-size="13" textLength="126.363">data: RUN_FINISHED</text><polygon points="258.157,847.43,248.157,851.43,258.157,855.43,254.157,851.43" fill="#181818" style="stroke:#181818;stroke-width:1;stroke-linejoin:miter;stroke-miterlimit:10;"/><line x1="252.157" y1="851.43" x2="592.952" y2="851.43" style="stroke:#181818;stroke-width:1;stroke-dasharray:2,2;"/><text x="264.157" y="846.688" fill="#000" font-size="13" textLength="203.328">RUN_FINISHED (read aloud if on)</text><?plantuml-src VLNDJjj04BxxAQQ-r54JqdCgePeqfHm8A3PI3qXeiGTxrVMkkxk6fWYffpv0U-sv3yQJT7RNaBW4JeIP-Rxv-sRzgjMiQXW8jbQT1TEWPP95h-548Z1ZkA7_BJHe3Ajm32XBiChz6GENmEGQQcKi94VB-UJjMnpjGLvZiBLCeW1r8mqeATP0L9P8PKdqcXXGSrcz8xD6rj3FCLc_TaZ8ouwBqbiecdYq9PTHehDSIH3y6btozqmtp7OQfuNIk1UzsjsB-S8bKR06ZAEN1Hw7RbB1AsB3AxiLGtbQ9Sr3p04ATPDghMx0wWwZo78h4DB7oHGripE86qKrMUhyacbdSnNpghPn5B72AWrd1dNaEk45RnqmJYkKzjJDw5mcAwGmeBXKLfqW3ZV1KKmh01yoX8QHpIarGOTZ29Yvu4I-8zzSIQkL4AZFvUb9biEKjNpAd6lgMl7ejEKxe1dgQruWPMnKIOjzGq9GmeI4Fc88yXkxnZD-IjOdTTAWAngXNWVyAWHhioDnMhYr6wBmik9DAx0XEtFcFdq86O8F5DDbZmfXtX95RXSmsG-JXHdOTOi6s4RbBTLko9IHIgCGjHNkrUahMmMz9ez0Wm8BYoLSkanZakgbPjJZXYHiXbWsEqnwsO_X5cfaT1Tc1cbdQwNvTzyat8sY7aWKj1x2k-sDgV42MnAWnMzsYjSKCGd4aOjomLL8Lsmb6aN1EjckfsIMpM1rjhp8ydILBpuyPjngVSiDYQdfAkAyvfAkfxh_yJT-WJXVVCulZXTPbXuk0iLuQ9kVBFF5CWVYsPNPDGWaEqjhJ4AB_juqjcBzGjxvMPQV74F79_uPkOL2DNJW59BJrkboArPMQ2VkW6FQF5iBnKgusrL3Jx9PvgDgoJcGU-BYwFKAiXn5cy0dg705Upqy6TGpEfVtFtyzK1zwpp4vXdoz-8cDt5clG2_rX0RJEoV_9VO2VRwkAoxBaEzWdRidB-aLJG9oUdwc05TrW2LSkWUom2C2nU4jtAfcFzoYgzc7UoHu0TDwMOEq2LkxcotfKVUVWLAhTf1uQpFzXFflnQrdAsV-oHw3PTfbk7jwoOKhuKgh82MFzQQ7hPpBs8sx36yvtF_v7RzyEX-FbaVPf-Tlvy4FT8gaCYPKLmA_ek_Zw1y0?></g></svg>